<?xml version="1.0" encoding="utf-8"?>
<!-- Generator: Adobe Illustrator 19.0.0, SVG Export Plug-In . SVG Version: 6.00 Build 0)  -->
<svg version="1.1" id="Layer_1" xmlns="http://www.w3.org/2000/svg" xmlns:xlink="http://www.w3.org/1999/xlink" x="0px" y="0px"
	 viewBox="6 172.6 812.4 257.4" style="enable-background:new 6 172.6 812.4 257.4;" xml:space="preserve">
<style type="text/css">
	.st0{display:none;}
	.st1{display:inline;fill:#0F1822;}
	.st2{display:inline;}
	.st3{fill:#B9AD9A;}
	.st4{fill:#8C806E;}
	.st5{display:inline;fill:none;}
	.st6{display:inline;fill:#FFFFFF;}
	.st7{font-family:'CenturyGothic-Bold';}
	.st8{font-size:24.902px;}
</style>
<g id="Layer_2" class="st0">
	<rect id="XMLID_1_" x="-187.8" y="98.9" class="st1" width="1200" height="400"/>
</g>
<g id="Layer_1_1_" class="st0">
	<g id="XMLID_39_" class="st2">
		<path id="XMLID_410_" class="st3" d="M248,226.3c0,0,8.2,7.2,12.4,4.1c0,0,1.7-0.5,0,0.8c-1.7,1.2-51.6,36.4-59.6,60.9
			s-15.3,28-15.3,28s-6.8,14.4-15.7,16.9c-8.9,2.4-29.1,6.3-33.2,12.2c0,0,3.5-7,7.3-8.7s20.9-11.7,24-12.4s8.2-10.3,8.2-10.3
			s-5,1.9-8.2,1.9c-3.1,0-12.4,0.2-15.3,3.3c0,0,2.3-9.6,19.7-17.7c17.4-8.2,19.3-17.6,19.3-17.6s18.8-31.6,52.9-49.6
			C244.4,238.2,253,234.8,248,226.3z M246.8,222.9c0,0-5.2-1.2-7.5-7.3c0,0-7,14.6-18.1,3.7c0,0-1.2,2.1,1,4.1
			c2.3,2,9.7,9.5,17.2-0.8C239.5,222.5,245.2,223.6,246.8,222.9z M214.3,188.6c0,0,5.4,11,4.9,15.7s-2.1,9.6-3.1,11.3
			s-3.8,9.7-1.7,12.2c0,0-1-2.7,4.9-8.2c0,0,2.4-4.2,2.7-9.4c0.3-5.2,4.2,0.9,4.2,0.9s-2.3-4.7-1.4-7.5
			C225.6,200.8,222.6,193.5,214.3,188.6z M198.8,222.9c0,0-1.6-9.3,5.9-14.7c0,0-6.7-3.4-6-9.9c0,0-2.1,1.6-2.7,4
			c-0.5,2.4-12.9,17.4-37.2,14.3c0,0-4.2,0-5.6,1.6c0,0,7.5-0.3,8.2,2.3c0.7,2.6-9.2,9.6-12.2,11.3s-13,7.3-19,17
			c0,0,6.6-6.8,9.6-7.8s16.9-11.7,18.3-13.2c1.4-1.5,4.7-1.8,1.6,6.5c0,0,2.3-0.9,3.5-4.2c1.2-3.3,1.9-3.7,3.3-3.9
			c1.4-0.1,11.5-2.6,22.6-10.7c0,0,5.2-1.2,5.7,0.9C195.3,218.5,198.8,222.9,198.8,222.9z M196,244.3c-6.9,13.7-4.2,18.1-4.2,18.1
			c0.7-5,4-9.6,4-9.6c9.9-17.2,0-25,0-25C200.7,236.9,196,244.3,196,244.3z M182.6,254c-2.4,6.8,1.6,11.3,1.6,11.3
			c-1.6-3.3,1-10.8,1-10.8c6.1-15.7,0-23,0-23C188.1,243.2,185,247.2,182.6,254z M210.1,192.4c-2.3,1.2-5.4,7.5-5.4,7.5
			c-2.1-18.1-20.9-10.6-29.2-8.4c-8.3,2.3-17.7,9.4-21.6,12.2c-3.8,2.8-2.8,4.5-2.8,4.5l-10.8,4.6c-1,13.6,9.9,12.7,9.9,12.7
			s-6.4,5.6-15.1,14.8c-8.7,9.2-18.3,8.5-21.2,10.4c-3,1.9-16.5,5.9-16.5,5.9s10.6-4,13.4-11.5s7.3-12.1,9.9-15.8
			s13.2-11.8,13.2-11.8c1.4-3.8-3.6-1.9-3.6-1.9c-24.9,8.9-26.8,21.6-27.3,25.2c-0.5,3.7,1.7,6.3,1.7,6.3l-0.3,1.4l-1.7-2.4
			c-12.7-7.5-23.5,0-23.5,0c15.5-18.4,40.2-34.1,47.5-33.8s12.5-0.9,13-0.9s6.8-2.4,8.7-4.7c1.9-2.3,27.7-20.4,27.7-20.4
			s5.2-5.7,7.5-6s13.9-6.8,13.9-6.8l2.8-0.9c3.2,2.1,10,8.4,12.5,11.5C215.1,187.2,212.4,191.2,210.1,192.4z M138.2,221.7
			c-1.4,0.7-5,0-5,0c-0.3,2.5-4.5,6.7-7.5,8.5c-3,1.7-10.6,16-10.6,16s15.3-3.8,20-11.5c4.7-7.7,8.7-8.4,8.7-8.4
			C141.9,226.1,138.2,221.7,138.2,221.7z M159.3,241.5c-6.6,7.5-14.3,9-21.1,10.6s-16.9,8.9-20.9,12.4s-3.3,10.3-3.3,10.3
			c3-6.4,20.5-14.6,28.4-17c7.8-2.4,18.3-12.7,19-15.1s4.5-8.6,4.5-8.6l-0.9-1.5C163.5,234.2,165.9,233.9,159.3,241.5z M97.9,268.6
			c-5.7,8.2-8.4,15.3-8.9,21.1c-0.5,5.7,2.8,22.4,3.5,28.9c0.7,6.4-1.2,9.2-1.2,9.2c0.9,0.9,0,5.6,0,4c0-1.6,7.1-11.3,7.1-11.3
			s-2.4,21.4-1,24s1.4,4.7,1.4,4.7l1.4,1c-1.9-4.7,5.2-15.1,5.2-15.1c1.6-17.4,7-20.7,11.8-25.2c4.9-4.5,21.9-9.2,22.8-10.4
			c0.8-1.2,1.1-2.7,1.1-2.7c-4,3.3-8,2.6-8,2.6c15.3-9.7,16.7-16,23.5-28.3c6.8-12.3,16.4-14.5,16.4-14.5v-1.2
			c-40.5,8.4-26.4,23.3-51.3,30.3s-21.2-20.4-21.2-20.4C98.8,265.5,97.9,268.6,97.9,268.6z M17.6,298.5c1.6-2.8,11.6-12.4,14-13.4
			s12.2-7.2,12.2-7.2c-1,5.2-6.2,10.8-4.8,9.9s8.2-6.5,9.2-8.3c1-1.8,3.6-1,3.6-1c4.4-6.4,24.6-13.8,25.8-14
			c1.2-0.2,6.8,1.2,7.6,7.8c0.8,6.6-6.2,5.6-6.2,5.6c-8-3.2-14.4,0.8-19.6,4.6c-5.2,3.8-12.2,4.2-12.2,4.2c4.2,3.4,13.6-2.8,20-5.4
			c6.4-2.6,13.4,2.4,13.4,2.4s-0.6-1.2,3.4-5.8s4.8-8.6,6.6-15.5c1.8-6.8,7-8.7,7-8.7c-4.4-7.3-17-5.3-20.8-4.9
			c-3.8,0.4-5.6-1.4-5.6-1.4c1.4,5.4-11.4,18.4-20.8,16.8c-9.4-1.6-15.8,1.8-17,2.8s0.8,1,0.8,1c2-2.8,8-1.8,8-1.8s-2.4,6.4-9.2,8.5
			c-6.8,2.1-13.2,10.1-16.2,17.5c-3,7.4-10.8,16-10.8,16C9.2,307.9,16,301.3,17.6,298.5z M71.4,287.8c4.9-0.7,7.2,3.6,7.7,3.6
			s1.1-0.8,1.1-0.8c-0.6-2,0-5,0-5c-4.6-5.8-15.6-0.6-22.4,2.1c-6.8,2.7-11.8,0-11.8,0C52.7,292.9,66.4,288.5,71.4,287.8z M77,292.5
			c-4.4,3.6-8.3-2.1-18.8,0.6c-12.5,3.2-22-3.6-22-3.6c2.4,6.5,14.7,10.2,26.8,7.3c12.1-2.8,16.1,0.9,16.1,0.9s0.1-1.3-0.6-3
			c-0.7-1.6,0-2.4,0-2.4L77,292.5z M58.9,309.7c-3.1-0.3-7-4.9-18.5-9c-11.6-4.1-15.6,0.4-15.6,0.4c1.1-0.6,12.2,1.8,13.6,2.4
			c1.4,0.6,8,2.6,6.1,8.4c-1.9,5.9-6.5,7.2-6.5,7.2h1.6c5.2-3.3,6.5-1.7,7.7-2.5c1.2-0.8,6.9,0.5,12.6,1s12.4-4.1,14.8-5.8
			s2.4-5.9,2.4-5.9c2.4-3,2.1-6,2.1-6C76,310.6,61.9,310,58.9,309.7z M77.3,302.8c0,0-2.6-2.9-11.6-0.6c-8.9,2.3-18.4-2.6-18.4-2.6
			s-3.3,0.2-4,1.7c0,0,2.3,0.1,2.5,0.8c0,0,0.6-0.8,2.9,0c2.3,0.7,9.6,4.2,14.2,3.9c4.7-0.3,7.2-0.4,11.3-2.9c0,0,1.1-0.5,1.7,0.1
			C76.5,304,75.9,303.3,77.3,302.8z M76.3,317.3c-2.4,3.3-4.3,13-5.4,19.9c-1.1,6.8,4.6,17.1,7.7,21.9c3.2,4.8,3.2,12.8,3.2,12.8
			c1.6,4.5-0.2,6.7-0.2,6.7c-0.8-3.3-5.8-12.7-8.4-17.8c-2.5-5.1-4.6-14.5-5-18c-0.4-3.6-1.4-7.1-1.4-7.1
			c-0.3,29.9,0.8,25.8,10.5,44.4c9.7,18.6,5.7,32.2,5.3,33.1c-0.4,0.9,0.6,1.2,0.6,1.2c5.6-16.1-0.8-32.5-0.8-32.5s0-2.8,1-4.8
			s1.1-7,1.1-7c5.1,5.1,6.2,12.6,6.8,21.6c0.6,9,7.3,15.9,7.3,15.9c-2.9-3.1-3.6-10.3-3-22s-8.5-27.4-12.1-31.8
			c-3.7-4.4-4.6-9.1-4.6-9.1c2.7-1,5,3.6,6.2,4.5c1.1,0.9,1.2,0,1.2,0c-3-3.8-4.6-24.4-4.4-27.5c0.2-3-3-15.5-3-15.5
			C79.3,308,78.8,314.1,76.3,317.3z M69.9,430c0,0,0.6-5.6,3.6-9.6s5.8-16.8,2.8-28.4c-3-11.6-9.3-20-16-23.6c0,0-4.3-4.2-4.4-7.3
			c0,0,6.7,4.5,9.3,9.1c0,0-5-13.8-0.8-28.9c4.2-15.1,4.7-20.4,3.3-24.8c0,0-0.9,4.8-3.7,7.3c-2.8,2.5-17.1,16.9-20.2,21.5
			c-3.1,4.6-16.2,23.7-9.8,45.8c0,0-0.5-5.6,1.3-8.8c1.8-3.1,3.5-7.5,3.8-10.4c0,0,4.4,11,12.7,20.7s14.2,18.9,15,24.5
			C67.6,422.7,68.2,428.3,69.9,430z M41.2,327.4c-4.5,4.4-8.8,13.2-10.2,17.3c-1.4,4.1-2.9,5.5-2.9,5.5h1c0,0,0.3-1.3,2.3-2.7
			c2-1.4,7.6-8.9,8.4-11.3c0.8-2.4,3.4-4.1,3-3.6s-0.7,2.1-0.8,4.2c-0.1,2.1-0.8,4.9-0.8,4.9c0.8-1.2,2.2-3.8,2.7-5.4
			c0.5-1.6,9.3-9.7,9.3-9.7s4.3-3.5,3.9-4.4c-0.4-0.9,1.2-3,1.2-3C48.3,327.1,45.7,323,41.2,327.4z M29.5,360.8
			c-5.1,7.5-4.8,16.8-4.8,16.8l1.1-0.5c-0.7,1.9,0.7,4.4,0.7,4.4c-0.5-1.9,0.8-6.6,1.6-9.6c0.8-3,4.4-7.1,7.1-12.3
			c2.7-5.2,1-14.9,1-14.9C36,349.2,34.6,353.3,29.5,360.8z M124.1,357.6c-1.9,9.4,2.5,23.1,3.3,25.1c0.8,2,0,5.2,0,5.2
			c5.1-10.7,24-25.8,30-27.6c6-1.8,12.5,3.5,12.6,12.9c0.1,9.4,4.6,18.5,4.8,19.5s7.6,10.7,10.6,12.7s6.8,7.9,6.8,7.9
			c1.5-4.8-2.7-10.8-2.8-12.9s-9.2-11-9.2-11c4.5-0.1,11.2,7.9,11.2,7.9h0.8c-0.2-1-1.3-2.4-4.4-5.8c-3.1-3.4-2.7-11.8-3-18.3
			s-7.5-25.5-18.1-26.9c-10.6-1.3-18.6,7.9-25.4,13.9c-6.8,6-9.2,1-9.2,1c-6.2-13.2,2.4-24,2.4-24c2-1.6,6.8-7.8,6.8-7.8
			C125.9,340.4,126,348.2,124.1,357.6z M124.5,398.7c0,0,2.1-2,3.1-2.6c3.2-2,6.5-2.9,10.5-7.7c4.3-5.1,9.4-6.6,14.7-6.5
			c5.3,0.1,12.7,13.8,14.4,16.4c1.7,2.6,7.9,7.9,9.8,7.8c1.9-0.1,9,4.3,8.3,3.6s-1.1-2.1-1.1-2.1s-2.1-0.4-3.5-2.4s-3.4-2.8-3.4-2.8
			c-6.1-1.3-10.4-10.7-11.2-12.3s-0.3-8.8-0.9-13.1c-0.6-4.3-4.4-9.3-8.7-10.6s-10.7,6.9-11.3,7.7c-0.6,0.8-6.3,8.2-7.8,9.6
			c-1.2,1.2-9.8,9.3-9.8,9.3c-2.7,5-5.6,5.8-5.6,5.8L124.5,398.7z M108.4,422.1c0,0,2.7-4.6,8.4-7.7c5.7-3,11.7-4.7,11.7-4.7
			s11.7-6.1,15.9-9.6s13.5-2.1,17.6,2.9s12.4,11.8,19.8,9c0,0-9-0.9-14.3-7.2c-5.3-6.3-13.8-17.7-20-15.9
			c-6.2,1.8-12.5,7.2-14.7,10.8c-2.3,3.6-6.8,6.6-9.2,7.5C121.2,408.1,107.7,412.5,108.4,422.1z M186.2,327.8
			c-2.9,5.4,3,18.6,6.4,27c3.4,8.4,0.9,15,0.9,15l1.1-0.5c0.3,2.6-1.4,5.9-1.4,5.9c2.3,0,3.3-4.5,3.3-4.5c5.3,9.9,1.8,8.7,3.5,23
			c1.7,14.3,15.8,23.9,15.8,23.9c-2.1-2-2.9-5.1-5.9-12.2s-1.2-18.5-0.6-26.7c0.6-8.3-9.8-30.6-15.2-39.6c-5.4-9-5.3-19.9-5.3-19.9
			S189.1,322.4,186.2,327.8z M211,377.8c0,0,1.4,2.9,1.4,7.2c0,4.4-0.5,26.7,9.5,33.6c0,0-3-4.7-3-6.3c0-1.6,0.8-1.5,0.8-1.5
			s-2.7-5-2.6-14.1c0.2-9.2-3.8-16.2-3.8-16.2S212.9,380.6,211,377.8z M197,340.7c0,0,7.7,8.9,9.9,16.8c2.3,8,7.1,14.6,7.1,14.6
			s-1.7-4.7-1.5-5.9c0.2-1.2,4.2,6.3,5.1,10.1c0.9,3.8,1.7,23.9,11.6,32h1.5c0,0-4.7-11-5.1-16.1c-0.5-5.1-5-19.5-9.8-30.6
			C211,350.5,197,340.7,197,340.7z M238.2,416.2c0,0-6.6-7-6-23.1c0.6-15.7-4.8-21-4.8-21h-1.1c0,0,1.1-16.2-8.1-23.9
			c0,0,3.9,2.9,4.7,2.9c0,0-2-2-2.1-3.7c-0.1-1.7-2.6-1.2-2.8-4.2s-4.2-7.3-6.3-9s-13-10.9-11.6-24.6l-0.8-0.8c0,0,2-9.5,0.8-12.8
			l-1.2,3.5c0,0-0.9,8.5-3.4,13s-1.9,12.2-0.9,13.7s1.4,3,1.6,3.9c0.2,0.9,0.9-0.5,0.9-0.5s-1.1-2.7,0-3.5
			c1.1-0.8,12.8,14,13.3,15.1c0.5,1.1,9.2,17.5,10.7,29.8c0,0,0.4,2.6,0.8,2.6c0.3,0,0,3.3,0,3.3s1.4-1.2,1.3-3.7
			c-0.1-2.5,4.3,6.2,3.9,8.1c-0.4,1.9,3,5.3,2.8,10.7c0,0,1.1,3.2,1.2,6.3C231.1,401.3,230.8,409.8,238.2,416.2z"/>
	</g>
	<g id="XMLID_2_" class="st2">
		<path id="XMLID_311_" class="st3" d="M229.2,328l55.6-78.4h51.9l14.5,20.3l-51.3-0.1l-10.2,14.3H322l-11.8,16.5H278L236.4,359
			L229.2,328z M521.1,322.9l-8.9-13.8h-28.1l25.6-35.9H491l-25,35.3l8.2,14.4L521.1,322.9L521.1,322.9z M356.3,273.2h-18.7l-25,35.3
			l8.2,14.4L356.3,273.2z M417.7,282.6c-3.7,5.2-20.9,29.5-24,33.8c-3.1,4.3-10.7,6.5-10.7,6.5h-54.8l9.4-13l26-36.7h51.6
			C415.2,273.2,421.4,277.4,417.7,282.6z M394.8,288.7h-23.6L356.7,309h21c0,0,3.2-0.8,4.4-2.4C383.2,305.1,394.8,288.7,394.8,288.7
			z M676.7,282.6c-3.7,5.2-20.9,29.5-24,33.8c-3.1,4.3-10.7,6.5-10.7,6.5h-41.8c0,0-9.5-5-3.6-13s20.3-28.5,22.4-31.6
			c4-5.8,9.2-5.2,9.2-5.2h46C674.2,273.2,680.3,277.4,676.7,282.6z M652.1,291c1.9-2.7-1.4-2.2-1.4-2.2h-18.2c0,0-2.2-0.4-3.7,1.7
			c-1.5,2.1-10,14.1-11.4,16s1.3,2.7,1.3,2.7h17.8c0,0,3.2-0.8,4.4-2.4C642.1,305.1,650.2,293.7,652.1,291z M817.3,282.6
			c-3.7,5.2-20.9,29.5-24,33.8c-3.1,4.3-10.7,6.5-10.7,6.5h-41.8c0,0-9.5-5-3.6-13s20.3-28.5,22.4-31.6c4-5.8,9.2-5.2,9.2-5.2h46
			C814.8,273.2,820.9,277.4,817.3,282.6z M792.7,291c1.9-2.7-1.4-2.2-1.4-2.2h-18.2c0,0-2.2-0.4-3.7,1.7c-1.5,2.1-10,14.1-11.4,16
			s1.3,2.7,1.3,2.7h17.8c0,0,3.2-0.8,4.4-2.4C782.8,305.1,790.8,293.7,792.7,291z M432.4,273.4l-26,36.8l9.3,12.4H468l-8.4-13.6
			h-34.2l3.7-5.2h25.3l8.3-11.5h-25.4l3.7-5.2h29.7l10-13.8h-48.3V273.4z M621,262.6l-22,31l-19.7,7.5l8,8.9l-34.2,48.1l-14-21.5
			l20.3-28.5l-11.6-11.5L529.6,322l-14-21.6l36.1-50.8h70.6C627.7,253.9,621,262.6,621,262.6z M587.5,268.7h-19.9l-8.7,12.2l4.8,8.2
			l14-6.4L587.5,268.7z M703.9,282.8l6.9-9.7h-18.7l-35.5,49.7h18.7l16.9-23.7l4.8,12.2l18.4-9.1l-13.6,19l9.8,12.4l43-60.5H736
			l-10.6,15l-17.2,7.3L703.9,282.8z"/>
	</g>
</g>
<g id="Layer_3" class="st0">
	<g id="XMLID_3_" class="st2">
		<path id="XMLID_438_" class="st3" d="M248,226.3c0,0,8.2,7.2,12.4,4.1c0,0,1.7-0.5,0,0.8c-1.7,1.2-51.6,36.4-59.6,60.9
			s-15.3,28-15.3,28s-6.8,14.4-15.7,16.9c-8.9,2.4-29.1,6.3-33.2,12.2c0,0,3.5-7,7.3-8.7s20.9-11.7,24-12.4s8.2-10.3,8.2-10.3
			s-5,1.9-8.2,1.9c-3.1,0-12.4,0.2-15.3,3.3c0,0,2.3-9.6,19.7-17.7c17.4-8.2,19.3-17.6,19.3-17.6s18.8-31.6,52.9-49.6
			C244.4,238.2,253,234.8,248,226.3z M246.8,222.9c0,0-5.2-1.2-7.5-7.3c0,0-7,14.6-18.1,3.7c0,0-1.2,2.1,1,4.1
			c2.3,2,9.7,9.5,17.2-0.8C239.5,222.5,245.2,223.6,246.8,222.9z M214.3,188.6c0,0,5.4,11,4.9,15.7s-2.1,9.6-3.1,11.3
			s-3.8,9.7-1.7,12.2c0,0-1-2.7,4.9-8.2c0,0,2.4-4.2,2.7-9.4c0.3-5.2,4.2,0.9,4.2,0.9s-2.3-4.7-1.4-7.5
			C225.6,200.8,222.6,193.5,214.3,188.6z M198.8,222.9c0,0-1.6-9.3,5.9-14.7c0,0-6.7-3.4-6-9.9c0,0-2.1,1.6-2.7,4
			c-0.5,2.4-12.9,17.4-37.2,14.3c0,0-4.2,0-5.6,1.6c0,0,7.5-0.3,8.2,2.3c0.7,2.6-9.2,9.6-12.2,11.3s-13,7.3-19,17
			c0,0,6.6-6.8,9.6-7.8s16.9-11.7,18.3-13.2c1.4-1.5,4.7-1.8,1.6,6.5c0,0,2.3-0.9,3.5-4.2c1.2-3.3,1.9-3.7,3.3-3.9
			c1.4-0.1,11.5-2.6,22.6-10.7c0,0,5.2-1.2,5.7,0.9C195.3,218.5,198.8,222.9,198.8,222.9z M196,244.3c-6.9,13.7-4.2,18.1-4.2,18.1
			c0.7-5,4-9.6,4-9.6c9.9-17.2,0-25,0-25C200.7,236.9,196,244.3,196,244.3z M182.6,254c-2.4,6.8,1.6,11.3,1.6,11.3
			c-1.6-3.3,1-10.8,1-10.8c6.1-15.7,0-23,0-23C188.1,243.2,185,247.2,182.6,254z M210.1,192.4c-2.3,1.2-5.4,7.5-5.4,7.5
			c-2.1-18.1-20.9-10.6-29.2-8.4c-8.3,2.3-17.7,9.4-21.6,12.2c-3.8,2.8-2.8,4.5-2.8,4.5l-10.8,4.6c-1,13.6,9.9,12.7,9.9,12.7
			s-6.4,5.6-15.1,14.8c-8.7,9.2-18.3,8.5-21.2,10.4c-3,1.9-16.5,5.9-16.5,5.9s10.6-4,13.4-11.5s7.3-12.1,9.9-15.8
			s13.2-11.8,13.2-11.8c1.4-3.8-3.6-1.9-3.6-1.9c-24.9,8.9-26.8,21.6-27.3,25.2c-0.5,3.7,1.7,6.3,1.7,6.3l-0.3,1.4l-1.7-2.4
			c-12.7-7.5-23.5,0-23.5,0c15.5-18.4,40.2-34.1,47.5-33.8s12.5-0.9,13-0.9s6.8-2.4,8.7-4.7c1.9-2.3,27.7-20.4,27.7-20.4
			s5.2-5.7,7.5-6s13.9-6.8,13.9-6.8l2.8-0.9c3.2,2.1,10,8.4,12.5,11.5C215.1,187.2,212.4,191.2,210.1,192.4z M138.2,221.7
			c-1.4,0.7-5,0-5,0c-0.3,2.5-4.5,6.7-7.5,8.5c-3,1.7-10.6,16-10.6,16s15.3-3.8,20-11.5c4.7-7.7,8.7-8.4,8.7-8.4
			C141.9,226.1,138.2,221.7,138.2,221.7z M159.3,241.5c-6.6,7.5-14.3,9-21.1,10.6s-16.9,8.9-20.9,12.4s-3.3,10.3-3.3,10.3
			c3-6.4,20.5-14.6,28.4-17c7.8-2.4,18.3-12.7,19-15.1s4.5-8.6,4.5-8.6l-0.9-1.5C163.5,234.2,165.9,233.9,159.3,241.5z M97.9,268.6
			c-5.7,8.2-8.4,15.3-8.9,21.1c-0.5,5.7,2.8,22.4,3.5,28.9c0.7,6.4-1.2,9.2-1.2,9.2c0.9,0.9,0,5.6,0,4c0-1.6,7.1-11.3,7.1-11.3
			s-2.4,21.4-1,24s1.4,4.7,1.4,4.7l1.4,1c-1.9-4.7,5.2-15.1,5.2-15.1c1.6-17.4,7-20.7,11.8-25.2c4.9-4.5,21.9-9.2,22.8-10.4
			c0.8-1.2,1.1-2.7,1.1-2.7c-4,3.3-8,2.6-8,2.6c15.3-9.7,16.7-16,23.5-28.3c6.8-12.3,16.4-14.5,16.4-14.5v-1.2
			c-40.5,8.4-26.4,23.3-51.3,30.3s-21.2-20.4-21.2-20.4C98.8,265.5,97.9,268.6,97.9,268.6z M17.6,298.5c1.6-2.8,11.6-12.4,14-13.4
			s12.2-7.2,12.2-7.2c-1,5.2-6.2,10.8-4.8,9.9s8.2-6.5,9.2-8.3c1-1.8,3.6-1,3.6-1c4.4-6.4,24.6-13.8,25.8-14
			c1.2-0.2,6.8,1.2,7.6,7.8c0.8,6.6-6.2,5.6-6.2,5.6c-8-3.2-14.4,0.8-19.6,4.6c-5.2,3.8-12.2,4.2-12.2,4.2c4.2,3.4,13.6-2.8,20-5.4
			c6.4-2.6,13.4,2.4,13.4,2.4s-0.6-1.2,3.4-5.8s4.8-8.6,6.6-15.5c1.8-6.8,7-8.7,7-8.7c-4.4-7.3-17-5.3-20.8-4.9
			c-3.8,0.4-5.6-1.4-5.6-1.4c1.4,5.4-11.4,18.4-20.8,16.8c-9.4-1.6-15.8,1.8-17,2.8s0.8,1,0.8,1c2-2.8,8-1.8,8-1.8s-2.4,6.4-9.2,8.5
			c-6.8,2.1-13.2,10.1-16.2,17.5c-3,7.4-10.8,16-10.8,16C9.2,307.9,16,301.3,17.6,298.5z M71.4,287.8c4.9-0.7,7.2,3.6,7.7,3.6
			s1.1-0.8,1.1-0.8c-0.6-2,0-5,0-5c-4.6-5.8-15.6-0.6-22.4,2.1c-6.8,2.7-11.8,0-11.8,0C52.7,292.9,66.4,288.5,71.4,287.8z M77,292.5
			c-4.4,3.6-8.3-2.1-18.8,0.6c-12.5,3.2-22-3.6-22-3.6c2.4,6.5,14.7,10.2,26.8,7.3c12.1-2.8,16.1,0.9,16.1,0.9s0.1-1.3-0.6-3
			c-0.7-1.6,0-2.4,0-2.4L77,292.5z M58.9,309.7c-3.1-0.3-7-4.9-18.5-9c-11.6-4.1-15.6,0.4-15.6,0.4c1.1-0.6,12.2,1.8,13.6,2.4
			c1.4,0.6,8,2.6,6.1,8.4c-1.9,5.9-6.5,7.2-6.5,7.2h1.6c5.2-3.3,6.5-1.7,7.7-2.5c1.2-0.8,6.9,0.5,12.6,1s12.4-4.1,14.8-5.8
			s2.4-5.9,2.4-5.9c2.4-3,2.1-6,2.1-6C76,310.6,61.9,310,58.9,309.7z M77.3,302.8c0,0-2.6-2.9-11.6-0.6c-8.9,2.3-18.4-2.6-18.4-2.6
			s-3.3,0.2-4,1.7c0,0,2.3,0.1,2.5,0.8c0,0,0.6-0.8,2.9,0c2.3,0.7,9.6,4.2,14.2,3.9c4.7-0.3,7.2-0.4,11.3-2.9c0,0,1.1-0.5,1.7,0.1
			C76.5,304,75.9,303.3,77.3,302.8z M76.3,317.3c-2.4,3.3-4.3,13-5.4,19.9c-1.1,6.8,4.6,17.1,7.7,21.9c3.2,4.8,3.2,12.8,3.2,12.8
			c1.6,4.5-0.2,6.7-0.2,6.7c-0.8-3.3-5.8-12.7-8.4-17.8c-2.5-5.1-4.6-14.5-5-18c-0.4-3.6-1.4-7.1-1.4-7.1
			c-0.3,29.9,0.8,25.8,10.5,44.4c9.7,18.6,5.7,32.2,5.3,33.1c-0.4,0.9,0.6,1.2,0.6,1.2c5.6-16.1-0.8-32.5-0.8-32.5s0-2.8,1-4.8
			s1.1-7,1.1-7c5.1,5.1,6.2,12.6,6.8,21.6c0.6,9,7.3,15.9,7.3,15.9c-2.9-3.1-3.6-10.3-3-22s-8.5-27.4-12.1-31.8
			c-3.7-4.4-4.6-9.1-4.6-9.1c2.7-1,5,3.6,6.2,4.5c1.1,0.9,1.2,0,1.2,0c-3-3.8-4.6-24.4-4.4-27.5c0.2-3-3-15.5-3-15.5
			C79.3,308,78.8,314.1,76.3,317.3z M69.9,430c0,0,0.6-5.6,3.6-9.6s5.8-16.8,2.8-28.4c-3-11.6-9.3-20-16-23.6c0,0-4.3-4.2-4.4-7.3
			c0,0,6.7,4.5,9.3,9.1c0,0-5-13.8-0.8-28.9c4.2-15.1,4.7-20.4,3.3-24.8c0,0-0.9,4.8-3.7,7.3c-2.8,2.5-17.1,16.9-20.2,21.5
			c-3.1,4.6-16.2,23.7-9.8,45.8c0,0-0.5-5.6,1.3-8.8c1.8-3.1,3.5-7.5,3.8-10.4c0,0,4.4,11,12.7,20.7s14.2,18.9,15,24.5
			C67.6,422.7,68.2,428.3,69.9,430z M41.2,327.4c-4.5,4.4-8.8,13.2-10.2,17.3c-1.4,4.1-2.9,5.5-2.9,5.5h1c0,0,0.3-1.3,2.3-2.7
			c2-1.4,7.6-8.9,8.4-11.3c0.8-2.4,3.4-4.1,3-3.6s-0.7,2.1-0.8,4.2c-0.1,2.1-0.8,4.9-0.8,4.9c0.8-1.2,2.2-3.8,2.7-5.4
			c0.5-1.6,9.3-9.7,9.3-9.7s4.3-3.5,3.9-4.4c-0.4-0.9,1.2-3,1.2-3C48.3,327.1,45.7,323,41.2,327.4z M29.5,360.8
			c-5.1,7.5-4.8,16.8-4.8,16.8l1.1-0.5c-0.7,1.9,0.7,4.4,0.7,4.4c-0.5-1.9,0.8-6.6,1.6-9.6c0.8-3,4.4-7.1,7.1-12.3
			c2.7-5.2,1-14.9,1-14.9C36,349.2,34.6,353.3,29.5,360.8z M124.1,357.6c-1.9,9.4,2.5,23.1,3.3,25.1c0.8,2,0,5.2,0,5.2
			c5.1-10.7,24-25.8,30-27.6c6-1.8,12.5,3.5,12.6,12.9c0.1,9.4,4.6,18.5,4.8,19.5s7.6,10.7,10.6,12.7s6.8,7.9,6.8,7.9
			c1.5-4.8-2.7-10.8-2.8-12.9s-9.2-11-9.2-11c4.5-0.1,11.2,7.9,11.2,7.9h0.8c-0.2-1-1.3-2.4-4.4-5.8c-3.1-3.4-2.7-11.8-3-18.3
			s-7.5-25.5-18.1-26.9c-10.6-1.3-18.6,7.9-25.4,13.9c-6.8,6-9.2,1-9.2,1c-6.2-13.2,2.4-24,2.4-24c2-1.6,6.8-7.8,6.8-7.8
			C125.9,340.4,126,348.2,124.1,357.6z M124.5,398.7c0,0,2.1-2,3.1-2.6c3.2-2,6.5-2.9,10.5-7.7c4.3-5.1,9.4-6.6,14.7-6.5
			c5.3,0.1,12.7,13.8,14.4,16.4c1.7,2.6,7.9,7.9,9.8,7.8c1.9-0.1,9,4.3,8.3,3.6s-1.1-2.1-1.1-2.1s-2.1-0.4-3.5-2.4s-3.4-2.8-3.4-2.8
			c-6.1-1.3-10.4-10.7-11.2-12.3s-0.3-8.8-0.9-13.1c-0.6-4.3-4.4-9.3-8.7-10.6s-10.7,6.9-11.3,7.7c-0.6,0.8-6.3,8.2-7.8,9.6
			c-1.2,1.2-9.8,9.3-9.8,9.3c-2.7,5-5.6,5.8-5.6,5.8L124.5,398.7z M108.4,422.1c0,0,2.7-4.6,8.4-7.7c5.7-3,11.7-4.7,11.7-4.7
			s11.7-6.1,15.9-9.6s13.5-2.1,17.6,2.9s12.4,11.8,19.8,9c0,0-9-0.9-14.3-7.2c-5.3-6.3-13.8-17.7-20-15.9
			c-6.2,1.8-12.5,7.2-14.7,10.8c-2.3,3.6-6.8,6.6-9.2,7.5C121.2,408.1,107.7,412.5,108.4,422.1z M186.2,327.8
			c-2.9,5.4,3,18.6,6.4,27c3.4,8.4,0.9,15,0.9,15l1.1-0.5c0.3,2.6-1.4,5.9-1.4,5.9c2.3,0,3.3-4.5,3.3-4.5c5.3,9.9,1.8,8.7,3.5,23
			c1.7,14.3,15.8,23.9,15.8,23.9c-2.1-2-2.9-5.1-5.9-12.2s-1.2-18.5-0.6-26.7c0.6-8.3-9.8-30.6-15.2-39.6c-5.4-9-5.3-19.9-5.3-19.9
			S189.1,322.4,186.2,327.8z M211,377.8c0,0,1.4,2.9,1.4,7.2c0,4.4-0.5,26.7,9.5,33.6c0,0-3-4.7-3-6.3c0-1.6,0.8-1.5,0.8-1.5
			s-2.7-5-2.6-14.1c0.2-9.2-3.8-16.2-3.8-16.2S212.9,380.6,211,377.8z M197,340.7c0,0,7.7,8.9,9.9,16.8c2.3,8,7.1,14.6,7.1,14.6
			s-1.7-4.7-1.5-5.9c0.2-1.2,4.2,6.3,5.1,10.1c0.9,3.8,1.7,23.9,11.6,32h1.5c0,0-4.7-11-5.1-16.1c-0.5-5.1-5-19.5-9.8-30.6
			C211,350.5,197,340.7,197,340.7z M238.2,416.2c0,0-6.6-7-6-23.1c0.6-15.7-4.8-21-4.8-21h-1.1c0,0,1.1-16.2-8.1-23.9
			c0,0,3.9,2.9,4.7,2.9c0,0-2-2-2.1-3.7c-0.1-1.7-2.6-1.2-2.8-4.2s-4.2-7.3-6.3-9s-13-10.9-11.6-24.6l-0.8-0.8c0,0,2-9.5,0.8-12.8
			l-1.2,3.5c0,0-0.9,8.5-3.4,13s-1.9,12.2-0.9,13.7s1.4,3,1.6,3.9c0.2,0.9,0.9-0.5,0.9-0.5s-1.1-2.7,0-3.5
			c1.1-0.8,12.8,14,13.3,15.1c0.5,1.1,9.2,17.5,10.7,29.8c0,0,0.4,2.6,0.8,2.6c0.3,0,0,3.3,0,3.3s1.4-1.2,1.3-3.7
			c-0.1-2.5,4.3,6.2,3.9,8.1c-0.4,1.9,3,5.3,2.8,10.7c0,0,1.1,3.2,1.2,6.3C231.1,401.3,230.8,409.8,238.2,416.2z"/>
	</g>
	<g id="XMLID_101_" class="st2">
		<path id="XMLID_337_" class="st3" d="M229.2,328l55.6-78.4h51.9l14.5,20.3l-51.3-0.1l-10.2,14.3H322l-11.8,16.5H278L236.4,359
			L229.2,328z M521.1,322.9l-8.9-13.8h-28.1l25.6-35.9H491l-25,35.3l8.2,14.4L521.1,322.9L521.1,322.9z M356.3,273.2h-18.7l-25,35.3
			l8.2,14.4L356.3,273.2z M417.7,282.6c-3.7,5.2-20.9,29.5-24,33.8c-3.1,4.3-10.7,6.5-10.7,6.5h-54.8l9.4-13l26-36.7h51.6
			C415.2,273.2,421.4,277.4,417.7,282.6z M394.8,288.7h-23.6L356.7,309h21c0,0,3.2-0.8,4.4-2.4C383.2,305.1,394.8,288.7,394.8,288.7
			z M676.7,282.6c-3.7,5.2-20.9,29.5-24,33.8c-3.1,4.3-10.7,6.5-10.7,6.5h-41.8c0,0-9.5-5-3.6-13s20.3-28.5,22.4-31.6
			c4-5.8,9.2-5.2,9.2-5.2h46C674.2,273.2,680.3,277.4,676.7,282.6z M652.1,291c1.9-2.7-1.4-2.2-1.4-2.2h-18.2c0,0-2.2-0.4-3.7,1.7
			c-1.5,2.1-10,14.1-11.4,16s1.3,2.7,1.3,2.7h17.8c0,0,3.2-0.8,4.4-2.4C642.1,305.1,650.2,293.7,652.1,291z M817.3,282.6
			c-3.7,5.2-20.9,29.5-24,33.8c-3.1,4.3-10.7,6.5-10.7,6.5h-41.8c0,0-9.5-5-3.6-13s20.3-28.5,22.4-31.6c4-5.8,9.2-5.2,9.2-5.2h46
			C814.8,273.2,820.9,277.4,817.3,282.6z M792.7,291c1.9-2.7-1.4-2.2-1.4-2.2h-18.2c0,0-2.2-0.4-3.7,1.7c-1.5,2.1-10,14.1-11.4,16
			s1.3,2.7,1.3,2.7h17.8c0,0,3.2-0.8,4.4-2.4C782.8,305.1,790.8,293.7,792.7,291z M432.4,273.4l-26,36.8l9.3,12.4H468l-8.4-13.6
			h-34.2l3.7-5.2h25.3l8.3-11.5h-25.4l3.7-5.2h29.7l10-13.8h-48.3V273.4z M621,262.6l-22,31l-19.7,7.5l8,8.9l-34.2,48.1l-14-21.5
			l20.3-28.5l-11.6-11.5L529.6,322l-14-21.6l36.1-50.8h70.6C627.7,253.9,621,262.6,621,262.6z M587.5,268.7h-19.9l-8.7,12.2l4.8,8.2
			l14-6.4L587.5,268.7z M703.9,282.8l6.9-9.7h-18.7l-35.5,49.7h18.7l16.9-23.7l4.8,12.2l18.4-9.1l-13.6,19l9.8,12.4l43-60.5H736
			l-10.6,15l-17.2,7.3L703.9,282.8z"/>
	</g>
</g>
<g id="Layer_4" class="st0">
	<g id="XMLID_4_" class="st2">
		<path id="XMLID_466_" class="st4" d="M248,226.3c0,0,8.2,7.2,12.4,4.1c0,0,1.7-0.5,0,0.8c-1.7,1.2-51.6,36.4-59.6,60.9
			s-15.3,28-15.3,28s-6.8,14.4-15.7,16.9c-8.9,2.4-29.1,6.3-33.2,12.2c0,0,3.5-7,7.3-8.7s20.9-11.7,24-12.4s8.2-10.3,8.2-10.3
			s-5,1.9-8.2,1.9c-3.1,0-12.4,0.2-15.3,3.3c0,0,2.3-9.6,19.7-17.7c17.4-8.2,19.3-17.6,19.3-17.6s18.8-31.6,52.9-49.6
			C244.4,238.2,253,234.8,248,226.3z M246.8,222.9c0,0-5.2-1.2-7.5-7.3c0,0-7,14.6-18.1,3.7c0,0-1.2,2.1,1,4.1
			c2.3,2,9.7,9.5,17.2-0.8C239.5,222.5,245.2,223.6,246.8,222.9z M214.3,188.6c0,0,5.4,11,4.9,15.7s-2.1,9.6-3.1,11.3
			s-3.8,9.7-1.7,12.2c0,0-1-2.7,4.9-8.2c0,0,2.4-4.2,2.7-9.4c0.3-5.2,4.2,0.9,4.2,0.9s-2.3-4.7-1.4-7.5
			C225.6,200.8,222.6,193.5,214.3,188.6z M198.8,222.9c0,0-1.6-9.3,5.9-14.7c0,0-6.7-3.4-6-9.9c0,0-2.1,1.6-2.7,4
			c-0.5,2.4-12.9,17.4-37.2,14.3c0,0-4.2,0-5.6,1.6c0,0,7.5-0.3,8.2,2.3c0.7,2.6-9.2,9.6-12.2,11.3s-13,7.3-19,17
			c0,0,6.6-6.8,9.6-7.8s16.9-11.7,18.3-13.2c1.4-1.5,4.7-1.8,1.6,6.5c0,0,2.3-0.9,3.5-4.2c1.2-3.3,1.9-3.7,3.3-3.9
			c1.4-0.1,11.5-2.6,22.6-10.7c0,0,5.2-1.2,5.7,0.9C195.3,218.5,198.8,222.9,198.8,222.9z M196,244.3c-6.9,13.7-4.2,18.1-4.2,18.1
			c0.7-5,4-9.6,4-9.6c9.9-17.2,0-25,0-25C200.7,236.9,196,244.3,196,244.3z M182.6,254c-2.4,6.8,1.6,11.3,1.6,11.3
			c-1.6-3.3,1-10.8,1-10.8c6.1-15.7,0-23,0-23C188.1,243.2,185,247.2,182.6,254z M210.1,192.4c-2.3,1.2-5.4,7.5-5.4,7.5
			c-2.1-18.1-20.9-10.6-29.2-8.4c-8.3,2.3-17.7,9.4-21.6,12.2c-3.8,2.8-2.8,4.5-2.8,4.5l-10.8,4.6c-1,13.6,9.9,12.7,9.9,12.7
			s-6.4,5.6-15.1,14.8c-8.7,9.2-18.3,8.5-21.2,10.4c-3,1.9-16.5,5.9-16.5,5.9s10.6-4,13.4-11.5s7.3-12.1,9.9-15.8
			s13.2-11.8,13.2-11.8c1.4-3.8-3.6-1.9-3.6-1.9c-24.9,8.9-26.8,21.6-27.3,25.2c-0.5,3.7,1.7,6.3,1.7,6.3l-0.3,1.4l-1.7-2.4
			c-12.7-7.5-23.5,0-23.5,0c15.5-18.4,40.2-34.1,47.5-33.8s12.5-0.9,13-0.9s6.8-2.4,8.7-4.7c1.9-2.3,27.7-20.4,27.7-20.4
			s5.2-5.7,7.5-6s13.9-6.8,13.9-6.8l2.8-0.9c3.2,2.1,10,8.4,12.5,11.5C215.1,187.2,212.4,191.2,210.1,192.4z M138.2,221.7
			c-1.4,0.7-5,0-5,0c-0.3,2.5-4.5,6.7-7.5,8.5c-3,1.7-10.6,16-10.6,16s15.3-3.8,20-11.5c4.7-7.7,8.7-8.4,8.7-8.4
			C141.9,226.1,138.2,221.7,138.2,221.7z M159.3,241.5c-6.6,7.5-14.3,9-21.1,10.6s-16.9,8.9-20.9,12.4s-3.3,10.3-3.3,10.3
			c3-6.4,20.5-14.6,28.4-17c7.8-2.4,18.3-12.7,19-15.1s4.5-8.6,4.5-8.6l-0.9-1.5C163.5,234.2,165.9,233.9,159.3,241.5z M97.9,268.6
			c-5.7,8.2-8.4,15.3-8.9,21.1c-0.5,5.7,2.8,22.4,3.5,28.9c0.7,6.4-1.2,9.2-1.2,9.2c0.9,0.9,0,5.6,0,4c0-1.6,7.1-11.3,7.1-11.3
			s-2.4,21.4-1,24s1.4,4.7,1.4,4.7l1.4,1c-1.9-4.7,5.2-15.1,5.2-15.1c1.6-17.4,7-20.7,11.8-25.2c4.9-4.5,21.9-9.2,22.8-10.4
			c0.8-1.2,1.1-2.7,1.1-2.7c-4,3.3-8,2.6-8,2.6c15.3-9.7,16.7-16,23.5-28.3c6.8-12.3,16.4-14.5,16.4-14.5v-1.2
			c-40.5,8.4-26.4,23.3-51.3,30.3s-21.2-20.4-21.2-20.4C98.8,265.5,97.9,268.6,97.9,268.6z M17.6,298.5c1.6-2.8,11.6-12.4,14-13.4
			s12.2-7.2,12.2-7.2c-1,5.2-6.2,10.8-4.8,9.9s8.2-6.5,9.2-8.3c1-1.8,3.6-1,3.6-1c4.4-6.4,24.6-13.8,25.8-14
			c1.2-0.2,6.8,1.2,7.6,7.8c0.8,6.6-6.2,5.6-6.2,5.6c-8-3.2-14.4,0.8-19.6,4.6c-5.2,3.8-12.2,4.2-12.2,4.2c4.2,3.4,13.6-2.8,20-5.4
			c6.4-2.6,13.4,2.4,13.4,2.4s-0.6-1.2,3.4-5.8s4.8-8.6,6.6-15.5c1.8-6.8,7-8.7,7-8.7c-4.4-7.3-17-5.3-20.8-4.9
			c-3.8,0.4-5.6-1.4-5.6-1.4c1.4,5.4-11.4,18.4-20.8,16.8c-9.4-1.6-15.8,1.8-17,2.8s0.8,1,0.8,1c2-2.8,8-1.8,8-1.8s-2.4,6.4-9.2,8.5
			c-6.8,2.1-13.2,10.1-16.2,17.5c-3,7.4-10.8,16-10.8,16C9.2,307.9,16,301.3,17.6,298.5z M71.4,287.8c4.9-0.7,7.2,3.6,7.7,3.6
			s1.1-0.8,1.1-0.8c-0.6-2,0-5,0-5c-4.6-5.8-15.6-0.6-22.4,2.1c-6.8,2.7-11.8,0-11.8,0C52.7,292.9,66.4,288.5,71.4,287.8z M77,292.5
			c-4.4,3.6-8.3-2.1-18.8,0.6c-12.5,3.2-22-3.6-22-3.6c2.4,6.5,14.7,10.2,26.8,7.3c12.1-2.8,16.1,0.9,16.1,0.9s0.1-1.3-0.6-3
			c-0.7-1.6,0-2.4,0-2.4L77,292.5z M58.9,309.7c-3.1-0.3-7-4.9-18.5-9c-11.6-4.1-15.6,0.4-15.6,0.4c1.1-0.6,12.2,1.8,13.6,2.4
			c1.4,0.6,8,2.6,6.1,8.4c-1.9,5.9-6.5,7.2-6.5,7.2h1.6c5.2-3.3,6.5-1.7,7.7-2.5c1.2-0.8,6.9,0.5,12.6,1s12.4-4.1,14.8-5.8
			s2.4-5.9,2.4-5.9c2.4-3,2.1-6,2.1-6C76,310.6,61.9,310,58.9,309.7z M77.3,302.8c0,0-2.6-2.9-11.6-0.6c-8.9,2.3-18.4-2.6-18.4-2.6
			s-3.3,0.2-4,1.7c0,0,2.3,0.1,2.5,0.8c0,0,0.6-0.8,2.9,0c2.3,0.7,9.6,4.2,14.2,3.9c4.7-0.3,7.2-0.4,11.3-2.9c0,0,1.1-0.5,1.7,0.1
			C76.5,304,75.9,303.3,77.3,302.8z M76.3,317.3c-2.4,3.3-4.3,13-5.4,19.9c-1.1,6.8,4.6,17.1,7.7,21.9c3.2,4.8,3.2,12.8,3.2,12.8
			c1.6,4.5-0.2,6.7-0.2,6.7c-0.8-3.3-5.8-12.7-8.4-17.8c-2.5-5.1-4.6-14.5-5-18c-0.4-3.6-1.4-7.1-1.4-7.1
			c-0.3,29.9,0.8,25.8,10.5,44.4c9.7,18.6,5.7,32.2,5.3,33.1c-0.4,0.9,0.6,1.2,0.6,1.2c5.6-16.1-0.8-32.5-0.8-32.5s0-2.8,1-4.8
			s1.1-7,1.1-7c5.1,5.1,6.2,12.6,6.8,21.6c0.6,9,7.3,15.9,7.3,15.9c-2.9-3.1-3.6-10.3-3-22s-8.5-27.4-12.1-31.8
			c-3.7-4.4-4.6-9.1-4.6-9.1c2.7-1,5,3.6,6.2,4.5c1.1,0.9,1.2,0,1.2,0c-3-3.8-4.6-24.4-4.4-27.5c0.2-3-3-15.5-3-15.5
			C79.3,308,78.8,314.1,76.3,317.3z M69.9,430c0,0,0.6-5.6,3.6-9.6s5.8-16.8,2.8-28.4c-3-11.6-9.3-20-16-23.6c0,0-4.3-4.2-4.4-7.3
			c0,0,6.7,4.5,9.3,9.1c0,0-5-13.8-0.8-28.9c4.2-15.1,4.7-20.4,3.3-24.8c0,0-0.9,4.8-3.7,7.3c-2.8,2.5-17.1,16.9-20.2,21.5
			c-3.1,4.6-16.2,23.7-9.8,45.8c0,0-0.5-5.6,1.3-8.8c1.8-3.1,3.5-7.5,3.8-10.4c0,0,4.4,11,12.7,20.7s14.2,18.9,15,24.5
			C67.6,422.7,68.2,428.3,69.9,430z M41.2,327.4c-4.5,4.4-8.8,13.2-10.2,17.3c-1.4,4.1-2.9,5.5-2.9,5.5h1c0,0,0.3-1.3,2.3-2.7
			c2-1.4,7.6-8.9,8.4-11.3c0.8-2.4,3.4-4.1,3-3.6s-0.7,2.1-0.8,4.2c-0.1,2.1-0.8,4.9-0.8,4.9c0.8-1.2,2.2-3.8,2.7-5.4
			c0.5-1.6,9.3-9.7,9.3-9.7s4.3-3.5,3.9-4.4c-0.4-0.9,1.2-3,1.2-3C48.3,327.1,45.7,323,41.2,327.4z M29.5,360.8
			c-5.1,7.5-4.8,16.8-4.8,16.8l1.1-0.5c-0.7,1.9,0.7,4.4,0.7,4.4c-0.5-1.9,0.8-6.6,1.6-9.6c0.8-3,4.4-7.1,7.1-12.3
			c2.7-5.2,1-14.9,1-14.9C36,349.2,34.6,353.3,29.5,360.8z M124.1,357.6c-1.9,9.4,2.5,23.1,3.3,25.1c0.8,2,0,5.2,0,5.2
			c5.1-10.7,24-25.8,30-27.6c6-1.8,12.5,3.5,12.6,12.9c0.1,9.4,4.6,18.5,4.8,19.5s7.6,10.7,10.6,12.7s6.8,7.9,6.8,7.9
			c1.5-4.8-2.7-10.8-2.8-12.9s-9.2-11-9.2-11c4.5-0.1,11.2,7.9,11.2,7.9h0.8c-0.2-1-1.3-2.4-4.4-5.8c-3.1-3.4-2.7-11.8-3-18.3
			s-7.5-25.5-18.1-26.9c-10.6-1.3-18.6,7.9-25.4,13.9c-6.8,6-9.2,1-9.2,1c-6.2-13.2,2.4-24,2.4-24c2-1.6,6.8-7.8,6.8-7.8
			C125.9,340.4,126,348.2,124.1,357.6z M124.5,398.7c0,0,2.1-2,3.1-2.6c3.2-2,6.5-2.9,10.5-7.7c4.3-5.1,9.4-6.6,14.7-6.5
			c5.3,0.1,12.7,13.8,14.4,16.4c1.7,2.6,7.9,7.9,9.8,7.8c1.9-0.1,9,4.3,8.3,3.6s-1.1-2.1-1.1-2.1s-2.1-0.4-3.5-2.4s-3.4-2.8-3.4-2.8
			c-6.1-1.3-10.4-10.7-11.2-12.3s-0.3-8.8-0.9-13.1c-0.6-4.3-4.4-9.3-8.7-10.6s-10.7,6.9-11.3,7.7c-0.6,0.8-6.3,8.2-7.8,9.6
			c-1.2,1.2-9.8,9.3-9.8,9.3c-2.7,5-5.6,5.8-5.6,5.8L124.5,398.7z M108.4,422.1c0,0,2.7-4.6,8.4-7.7c5.7-3,11.7-4.7,11.7-4.7
			s11.7-6.1,15.9-9.6s13.5-2.1,17.6,2.9s12.4,11.8,19.8,9c0,0-9-0.9-14.3-7.2c-5.3-6.3-13.8-17.7-20-15.9
			c-6.2,1.8-12.5,7.2-14.7,10.8c-2.3,3.6-6.8,6.6-9.2,7.5C121.2,408.1,107.7,412.5,108.4,422.1z M186.2,327.8
			c-2.9,5.4,3,18.6,6.4,27c3.4,8.4,0.9,15,0.9,15l1.1-0.5c0.3,2.6-1.4,5.9-1.4,5.9c2.3,0,3.3-4.5,3.3-4.5c5.3,9.9,1.8,8.7,3.5,23
			c1.7,14.3,15.8,23.9,15.8,23.9c-2.1-2-2.9-5.1-5.9-12.2s-1.2-18.5-0.6-26.7c0.6-8.3-9.8-30.6-15.2-39.6c-5.4-9-5.3-19.9-5.3-19.9
			S189.1,322.4,186.2,327.8z M211,377.8c0,0,1.4,2.9,1.4,7.2c0,4.4-0.5,26.7,9.5,33.6c0,0-3-4.7-3-6.3c0-1.6,0.8-1.5,0.8-1.5
			s-2.7-5-2.6-14.1c0.2-9.2-3.8-16.2-3.8-16.2S212.9,380.6,211,377.8z M197,340.7c0,0,7.7,8.9,9.9,16.8c2.3,8,7.1,14.6,7.1,14.6
			s-1.7-4.7-1.5-5.9c0.2-1.2,4.2,6.3,5.1,10.1c0.9,3.8,1.7,23.9,11.6,32h1.5c0,0-4.7-11-5.1-16.1c-0.5-5.1-5-19.5-9.8-30.6
			C211,350.5,197,340.7,197,340.7z M238.2,416.2c0,0-6.6-7-6-23.1c0.6-15.7-4.8-21-4.8-21h-1.1c0,0,1.1-16.2-8.1-23.9
			c0,0,3.9,2.9,4.7,2.9c0,0-2-2-2.1-3.7c-0.1-1.7-2.6-1.2-2.8-4.2s-4.2-7.3-6.3-9s-13-10.9-11.6-24.6l-0.8-0.8c0,0,2-9.5,0.8-12.8
			l-1.2,3.5c0,0-0.9,8.5-3.4,13s-1.9,12.2-0.9,13.7s1.4,3,1.6,3.9c0.2,0.9,0.9-0.5,0.9-0.5s-1.1-2.7,0-3.5
			c1.1-0.8,12.8,14,13.3,15.1c0.5,1.1,9.2,17.5,10.7,29.8c0,0,0.4,2.6,0.8,2.6c0.3,0,0,3.3,0,3.3s1.4-1.2,1.3-3.7
			c-0.1-2.5,4.3,6.2,3.9,8.1c-0.4,1.9,3,5.3,2.8,10.7c0,0,1.1,3.2,1.2,6.3C231.1,401.3,230.8,409.8,238.2,416.2z"/>
	</g>
	<g id="XMLID_170_" class="st2">
		<path id="XMLID_284_" class="st4" d="M229.2,328l55.6-78.4h51.9l14.5,20.3l-51.3-0.1l-10.2,14.3H322l-11.8,16.5H278L236.4,359
			L229.2,328z M521.1,322.9l-8.9-13.8h-28.1l25.6-35.9H491l-25,35.3l8.2,14.4L521.1,322.9L521.1,322.9z M356.3,273.2h-18.7l-25,35.3
			l8.2,14.4L356.3,273.2z M417.7,282.6c-3.7,5.2-20.9,29.5-24,33.8c-3.1,4.3-10.7,6.5-10.7,6.5h-54.8l9.4-13l26-36.7h51.6
			C415.2,273.2,421.4,277.4,417.7,282.6z M394.8,288.7h-23.6L356.7,309h21c0,0,3.2-0.8,4.4-2.4C383.2,305.1,394.8,288.7,394.8,288.7
			z M676.7,282.6c-3.7,5.2-20.9,29.5-24,33.8c-3.1,4.3-10.7,6.5-10.7,6.5h-41.8c0,0-9.5-5-3.6-13s20.3-28.5,22.4-31.6
			c4-5.8,9.2-5.2,9.2-5.2h46C674.2,273.2,680.3,277.4,676.7,282.6z M652.1,291c1.9-2.7-1.4-2.2-1.4-2.2h-18.2c0,0-2.2-0.4-3.7,1.7
			c-1.5,2.1-10,14.1-11.4,16s1.3,2.7,1.3,2.7h17.8c0,0,3.2-0.8,4.4-2.4C642.1,305.1,650.2,293.7,652.1,291z M817.3,282.6
			c-3.7,5.2-20.9,29.5-24,33.8c-3.1,4.3-10.7,6.5-10.7,6.5h-41.8c0,0-9.5-5-3.6-13s20.3-28.5,22.4-31.6c4-5.8,9.2-5.2,9.2-5.2h46
			C814.8,273.2,820.9,277.4,817.3,282.6z M792.7,291c1.9-2.7-1.4-2.2-1.4-2.2h-18.2c0,0-2.2-0.4-3.7,1.7c-1.5,2.1-10,14.1-11.4,16
			s1.3,2.7,1.3,2.7h17.8c0,0,3.2-0.8,4.4-2.4C782.8,305.1,790.8,293.7,792.7,291z M432.4,273.4l-26,36.8l9.3,12.4H468l-8.4-13.6
			h-34.2l3.7-5.2h25.3l8.3-11.5h-25.4l3.7-5.2h29.7l10-13.8h-48.3V273.4z M621,262.6l-22,31l-19.7,7.5l8,8.9l-34.2,48.1l-14-21.5
			l20.3-28.5l-11.6-11.5L529.6,322l-14-21.6l36.1-50.8h70.6C627.7,253.9,621,262.6,621,262.6z M587.5,268.7h-19.9l-8.7,12.2l4.8,8.2
			l14-6.4L587.5,268.7z M703.9,282.8l6.9-9.7h-18.7l-35.5,49.7h18.7l16.9-23.7l4.8,12.2l18.4-9.1l-13.6,19l9.8,12.4l43-60.5H736
			l-10.6,15l-17.2,7.3L703.9,282.8z"/>
	</g>
</g>
<g id="Layer_5">
	<g id="XMLID_5_">
		<path id="XMLID_494_" d="M248,226.3c0,0,8.2,7.2,12.4,4.1c0,0,1.7-0.5,0,0.8c-1.7,1.2-51.6,36.4-59.6,60.9s-15.3,28-15.3,28
			s-6.8,14.4-15.7,16.9c-8.9,2.4-29.1,6.3-33.2,12.2c0,0,3.5-7,7.3-8.7s20.9-11.7,24-12.4s8.2-10.3,8.2-10.3s-5,1.9-8.2,1.9
			c-3.1,0-12.4,0.2-15.3,3.3c0,0,2.3-9.6,19.7-17.7c17.4-8.2,19.3-17.6,19.3-17.6s18.8-31.6,52.9-49.6
			C244.4,238.2,253,234.8,248,226.3z M246.8,222.9c0,0-5.2-1.2-7.5-7.3c0,0-7,14.6-18.1,3.7c0,0-1.2,2.1,1,4.1
			c2.3,2,9.7,9.5,17.2-0.8C239.5,222.5,245.2,223.6,246.8,222.9z M214.3,188.6c0,0,5.4,11,4.9,15.7s-2.1,9.6-3.1,11.3
			s-3.8,9.7-1.7,12.2c0,0-1-2.7,4.9-8.2c0,0,2.4-4.2,2.7-9.4c0.3-5.2,4.2,0.9,4.2,0.9s-2.3-4.7-1.4-7.5
			C225.6,200.8,222.6,193.5,214.3,188.6z M198.8,222.9c0,0-1.6-9.3,5.9-14.7c0,0-6.7-3.4-6-9.9c0,0-2.1,1.6-2.7,4
			c-0.5,2.4-12.9,17.4-37.2,14.3c0,0-4.2,0-5.6,1.6c0,0,7.5-0.3,8.2,2.3c0.7,2.6-9.2,9.6-12.2,11.3s-13,7.3-19,17
			c0,0,6.6-6.8,9.6-7.8s16.9-11.7,18.3-13.2c1.4-1.5,4.7-1.8,1.6,6.5c0,0,2.3-0.9,3.5-4.2c1.2-3.3,1.9-3.7,3.3-3.9
			c1.4-0.1,11.5-2.6,22.6-10.7c0,0,5.2-1.2,5.7,0.9C195.3,218.5,198.8,222.9,198.8,222.9z M196,244.3c-6.9,13.7-4.2,18.1-4.2,18.1
			c0.7-5,4-9.6,4-9.6c9.9-17.2,0-25,0-25C200.7,236.9,196,244.3,196,244.3z M182.6,254c-2.4,6.8,1.6,11.3,1.6,11.3
			c-1.6-3.3,1-10.8,1-10.8c6.1-15.7,0-23,0-23C188.1,243.2,185,247.2,182.6,254z M210.1,192.4c-2.3,1.2-5.4,7.5-5.4,7.5
			c-2.1-18.1-20.9-10.6-29.2-8.4c-8.3,2.3-17.7,9.4-21.6,12.2c-3.8,2.8-2.8,4.5-2.8,4.5l-10.8,4.6c-1,13.6,9.9,12.7,9.9,12.7
			s-6.4,5.6-15.1,14.8c-8.7,9.2-18.3,8.5-21.2,10.4c-3,1.9-16.5,5.9-16.5,5.9s10.6-4,13.4-11.5s7.3-12.1,9.9-15.8
			s13.2-11.8,13.2-11.8c1.4-3.8-3.6-1.9-3.6-1.9c-24.9,8.9-26.8,21.6-27.3,25.2c-0.5,3.7,1.7,6.3,1.7,6.3l-0.3,1.4l-1.7-2.4
			c-12.7-7.5-23.5,0-23.5,0c15.5-18.4,40.2-34.1,47.5-33.8s12.5-0.9,13-0.9s6.8-2.4,8.7-4.7c1.9-2.3,27.7-20.4,27.7-20.4
			s5.2-5.7,7.5-6s13.9-6.8,13.9-6.8l2.8-0.9c3.2,2.1,10,8.4,12.5,11.5C215.1,187.2,212.4,191.2,210.1,192.4z M138.2,221.7
			c-1.4,0.7-5,0-5,0c-0.3,2.5-4.5,6.7-7.5,8.5c-3,1.7-10.6,16-10.6,16s15.3-3.8,20-11.5c4.7-7.7,8.7-8.4,8.7-8.4
			C141.9,226.1,138.2,221.7,138.2,221.7z M159.3,241.5c-6.6,7.5-14.3,9-21.1,10.6s-16.9,8.9-20.9,12.4s-3.3,10.3-3.3,10.3
			c3-6.4,20.5-14.6,28.4-17c7.8-2.4,18.3-12.7,19-15.1s4.5-8.6,4.5-8.6l-0.9-1.5C163.5,234.2,165.9,233.9,159.3,241.5z M97.9,268.6
			c-5.7,8.2-8.4,15.3-8.9,21.1c-0.5,5.7,2.8,22.4,3.5,28.9c0.7,6.4-1.2,9.2-1.2,9.2c0.9,0.9,0,5.6,0,4c0-1.6,7.1-11.3,7.1-11.3
			s-2.4,21.4-1,24s1.4,4.7,1.4,4.7l1.4,1c-1.9-4.7,5.2-15.1,5.2-15.1c1.6-17.4,7-20.7,11.8-25.2c4.9-4.5,21.9-9.2,22.8-10.4
			c0.8-1.2,1.1-2.7,1.1-2.7c-4,3.3-8,2.6-8,2.6c15.3-9.7,16.7-16,23.5-28.3c6.8-12.3,16.4-14.5,16.4-14.5v-1.2
			c-40.5,8.4-26.4,23.3-51.3,30.3s-21.2-20.4-21.2-20.4C98.8,265.5,97.9,268.6,97.9,268.6z M17.6,298.5c1.6-2.8,11.6-12.4,14-13.4
			s12.2-7.2,12.2-7.2c-1,5.2-6.2,10.8-4.8,9.9s8.2-6.5,9.2-8.3c1-1.8,3.6-1,3.6-1c4.4-6.4,24.6-13.8,25.8-14
			c1.2-0.2,6.8,1.2,7.6,7.8c0.8,6.6-6.2,5.6-6.2,5.6c-8-3.2-14.4,0.8-19.6,4.6c-5.2,3.8-12.2,4.2-12.2,4.2c4.2,3.4,13.6-2.8,20-5.4
			c6.4-2.6,13.4,2.4,13.4,2.4s-0.6-1.2,3.4-5.8s4.8-8.6,6.6-15.5c1.8-6.8,7-8.7,7-8.7c-4.4-7.3-17-5.3-20.8-4.9
			c-3.8,0.4-5.6-1.4-5.6-1.4c1.4,5.4-11.4,18.4-20.8,16.8c-9.4-1.6-15.8,1.8-17,2.8s0.8,1,0.8,1c2-2.8,8-1.8,8-1.8s-2.4,6.4-9.2,8.5
			c-6.8,2.1-13.2,10.1-16.2,17.5c-3,7.4-10.8,16-10.8,16C9.2,307.9,16,301.3,17.6,298.5z M71.4,287.8c4.9-0.7,7.2,3.6,7.7,3.6
			s1.1-0.8,1.1-0.8c-0.6-2,0-5,0-5c-4.6-5.8-15.6-0.6-22.4,2.1c-6.8,2.7-11.8,0-11.8,0C52.7,292.9,66.4,288.5,71.4,287.8z M77,292.5
			c-4.4,3.6-8.3-2.1-18.8,0.6c-12.5,3.2-22-3.6-22-3.6c2.4,6.5,14.7,10.2,26.8,7.3c12.1-2.8,16.1,0.9,16.1,0.9s0.1-1.3-0.6-3
			c-0.7-1.6,0-2.4,0-2.4L77,292.5z M58.9,309.7c-3.1-0.3-7-4.9-18.5-9c-11.6-4.1-15.6,0.4-15.6,0.4c1.1-0.6,12.2,1.8,13.6,2.4
			c1.4,0.6,8,2.6,6.1,8.4c-1.9,5.9-6.5,7.2-6.5,7.2h1.6c5.2-3.3,6.5-1.7,7.7-2.5c1.2-0.8,6.9,0.5,12.6,1s12.4-4.1,14.8-5.8
			s2.4-5.9,2.4-5.9c2.4-3,2.1-6,2.1-6C76,310.6,61.9,310,58.9,309.7z M77.3,302.8c0,0-2.6-2.9-11.6-0.6c-8.9,2.3-18.4-2.6-18.4-2.6
			s-3.3,0.2-4,1.7c0,0,2.3,0.1,2.5,0.8c0,0,0.6-0.8,2.9,0c2.3,0.7,9.6,4.2,14.2,3.9c4.7-0.3,7.2-0.4,11.3-2.9c0,0,1.1-0.5,1.7,0.1
			C76.5,304,75.9,303.3,77.3,302.8z M76.3,317.3c-2.4,3.3-4.3,13-5.4,19.9c-1.1,6.8,4.6,17.1,7.7,21.9c3.2,4.8,3.2,12.8,3.2,12.8
			c1.6,4.5-0.2,6.7-0.2,6.7c-0.8-3.3-5.8-12.7-8.4-17.8c-2.5-5.1-4.6-14.5-5-18c-0.4-3.6-1.4-7.1-1.4-7.1
			c-0.3,29.9,0.8,25.8,10.5,44.4c9.7,18.6,5.7,32.2,5.3,33.1c-0.4,0.9,0.6,1.2,0.6,1.2c5.6-16.1-0.8-32.5-0.8-32.5s0-2.8,1-4.8
			s1.1-7,1.1-7c5.1,5.1,6.2,12.6,6.8,21.6c0.6,9,7.3,15.9,7.3,15.9c-2.9-3.1-3.6-10.3-3-22s-8.5-27.4-12.1-31.8
			c-3.7-4.4-4.6-9.1-4.6-9.1c2.7-1,5,3.6,6.2,4.5c1.1,0.9,1.2,0,1.2,0c-3-3.8-4.6-24.4-4.4-27.5c0.2-3-3-15.5-3-15.5
			C79.3,308,78.8,314.1,76.3,317.3z M69.9,430c0,0,0.6-5.6,3.6-9.6s5.8-16.8,2.8-28.4c-3-11.6-9.3-20-16-23.6c0,0-4.3-4.2-4.4-7.3
			c0,0,6.7,4.5,9.3,9.1c0,0-5-13.8-0.8-28.9c4.2-15.1,4.7-20.4,3.3-24.8c0,0-0.9,4.8-3.7,7.3c-2.8,2.5-17.1,16.9-20.2,21.5
			c-3.1,4.6-16.2,23.7-9.8,45.8c0,0-0.5-5.6,1.3-8.8c1.8-3.1,3.5-7.5,3.8-10.4c0,0,4.4,11,12.7,20.7s14.2,18.9,15,24.5
			C67.6,422.7,68.2,428.3,69.9,430z M41.2,327.4c-4.5,4.4-8.8,13.2-10.2,17.3c-1.4,4.1-2.9,5.5-2.9,5.5h1c0,0,0.3-1.3,2.3-2.7
			c2-1.4,7.6-8.9,8.4-11.3c0.8-2.4,3.4-4.1,3-3.6s-0.7,2.1-0.8,4.2c-0.1,2.1-0.8,4.9-0.8,4.9c0.8-1.2,2.2-3.8,2.7-5.4
			c0.5-1.6,9.3-9.7,9.3-9.7s4.3-3.5,3.9-4.4c-0.4-0.9,1.2-3,1.2-3C48.3,327.1,45.7,323,41.2,327.4z M29.5,360.8
			c-5.1,7.5-4.8,16.8-4.8,16.8l1.1-0.5c-0.7,1.9,0.7,4.4,0.7,4.4c-0.5-1.9,0.8-6.6,1.6-9.6c0.8-3,4.4-7.1,7.1-12.3
			c2.7-5.2,1-14.9,1-14.9C36,349.2,34.6,353.3,29.5,360.8z M124.1,357.6c-1.9,9.4,2.5,23.1,3.3,25.1c0.8,2,0,5.2,0,5.2
			c5.1-10.7,24-25.8,30-27.6c6-1.8,12.5,3.5,12.6,12.9c0.1,9.4,4.6,18.5,4.8,19.5s7.6,10.7,10.6,12.7s6.8,7.9,6.8,7.9
			c1.5-4.8-2.7-10.8-2.8-12.9s-9.2-11-9.2-11c4.5-0.1,11.2,7.9,11.2,7.9h0.8c-0.2-1-1.3-2.4-4.4-5.8c-3.1-3.4-2.7-11.8-3-18.3
			s-7.5-25.5-18.1-26.9c-10.6-1.3-18.6,7.9-25.4,13.9c-6.8,6-9.2,1-9.2,1c-6.2-13.2,2.4-24,2.4-24c2-1.6,6.8-7.8,6.8-7.8
			C125.9,340.4,126,348.2,124.1,357.6z M124.5,398.7c0,0,2.1-2,3.1-2.6c3.2-2,6.5-2.9,10.5-7.7c4.3-5.1,9.4-6.6,14.7-6.5
			c5.3,0.1,12.7,13.8,14.4,16.4c1.7,2.6,7.9,7.9,9.8,7.8c1.9-0.1,9,4.3,8.3,3.6s-1.1-2.1-1.1-2.1s-2.1-0.4-3.5-2.4s-3.4-2.8-3.4-2.8
			c-6.1-1.3-10.4-10.7-11.2-12.3s-0.3-8.8-0.9-13.1c-0.6-4.3-4.4-9.3-8.7-10.6s-10.7,6.9-11.3,7.7c-0.6,0.8-6.3,8.2-7.8,9.6
			c-1.2,1.2-9.8,9.3-9.8,9.3c-2.7,5-5.6,5.8-5.6,5.8L124.5,398.7z M108.4,422.1c0,0,2.7-4.6,8.4-7.7c5.7-3,11.7-4.7,11.7-4.7
			s11.7-6.1,15.9-9.6s13.5-2.1,17.6,2.9s12.4,11.8,19.8,9c0,0-9-0.9-14.3-7.2c-5.3-6.3-13.8-17.7-20-15.9
			c-6.2,1.8-12.5,7.2-14.7,10.8c-2.3,3.6-6.8,6.6-9.2,7.5C121.2,408.1,107.7,412.5,108.4,422.1z M186.2,327.8
			c-2.9,5.4,3,18.6,6.4,27c3.4,8.4,0.9,15,0.9,15l1.1-0.5c0.3,2.6-1.4,5.9-1.4,5.9c2.3,0,3.3-4.5,3.3-4.5c5.3,9.9,1.8,8.7,3.5,23
			c1.7,14.3,15.8,23.9,15.8,23.9c-2.1-2-2.9-5.1-5.9-12.2s-1.2-18.5-0.6-26.7c0.6-8.3-9.8-30.6-15.2-39.6c-5.4-9-5.3-19.9-5.3-19.9
			S189.1,322.4,186.2,327.8z M211,377.8c0,0,1.4,2.9,1.4,7.2c0,4.4-0.5,26.7,9.5,33.6c0,0-3-4.7-3-6.3c0-1.6,0.8-1.5,0.8-1.5
			s-2.7-5-2.6-14.1c0.2-9.2-3.8-16.2-3.8-16.2S212.9,380.6,211,377.8z M197,340.7c0,0,7.7,8.9,9.9,16.8c2.3,8,7.1,14.6,7.1,14.6
			s-1.7-4.7-1.5-5.9c0.2-1.2,4.2,6.3,5.1,10.1c0.9,3.8,1.7,23.9,11.6,32h1.5c0,0-4.7-11-5.1-16.1c-0.5-5.1-5-19.5-9.8-30.6
			C211,350.5,197,340.7,197,340.7z M238.2,416.2c0,0-6.6-7-6-23.1c0.6-15.7-4.8-21-4.8-21h-1.1c0,0,1.1-16.2-8.1-23.9
			c0,0,3.9,2.9,4.7,2.9c0,0-2-2-2.1-3.7c-0.1-1.7-2.6-1.2-2.8-4.2s-4.2-7.3-6.3-9s-13-10.9-11.6-24.6l-0.8-0.8c0,0,2-9.5,0.8-12.8
			l-1.2,3.5c0,0-0.9,8.5-3.4,13s-1.9,12.2-0.9,13.7s1.4,3,1.6,3.9c0.2,0.9,0.9-0.5,0.9-0.5s-1.1-2.7,0-3.5
			c1.1-0.8,12.8,14,13.3,15.1c0.5,1.1,9.2,17.5,10.7,29.8c0,0,0.4,2.6,0.8,2.6c0.3,0,0,3.3,0,3.3s1.4-1.2,1.3-3.7
			c-0.1-2.5,4.3,6.2,3.9,8.1c-0.4,1.9,3,5.3,2.8,10.7c0,0,1.1,3.2,1.2,6.3C231.1,401.3,230.8,409.8,238.2,416.2z"/>
	</g>
	<g id="XMLID_246_">
		<path id="XMLID_267_" d="M229.2,328l55.6-78.4h51.9l14.5,20.3l-51.3-0.1l-10.2,14.3H322l-11.8,16.5H278L236.4,359L229.2,328z
			 M521.1,322.9l-8.9-13.8h-28.1l25.6-35.9H491l-25,35.3l8.2,14.4L521.1,322.9L521.1,322.9z M356.3,273.2h-18.7l-25,35.3l8.2,14.4
			L356.3,273.2z M417.7,282.6c-3.7,5.2-20.9,29.5-24,33.8c-3.1,4.3-10.7,6.5-10.7,6.5h-54.8l9.4-13l26-36.7h51.6
			C415.2,273.2,421.4,277.4,417.7,282.6z M394.8,288.7h-23.6L356.7,309h21c0,0,3.2-0.8,4.4-2.4C383.2,305.1,394.8,288.7,394.8,288.7
			z M676.7,282.6c-3.7,5.2-20.9,29.5-24,33.8c-3.1,4.3-10.7,6.5-10.7,6.5h-41.8c0,0-9.5-5-3.6-13s20.3-28.5,22.4-31.6
			c4-5.8,9.2-5.2,9.2-5.2h46C674.2,273.2,680.3,277.4,676.7,282.6z M652.1,291c1.9-2.7-1.4-2.2-1.4-2.2h-18.2c0,0-2.2-0.4-3.7,1.7
			c-1.5,2.1-10,14.1-11.4,16s1.3,2.7,1.3,2.7h17.8c0,0,3.2-0.8,4.4-2.4C642.1,305.1,650.2,293.7,652.1,291z M817.3,282.6
			c-3.7,5.2-20.9,29.5-24,33.8c-3.1,4.3-10.7,6.5-10.7,6.5h-41.8c0,0-9.5-5-3.6-13s20.3-28.5,22.4-31.6c4-5.8,9.2-5.2,9.2-5.2h46
			C814.8,273.2,820.9,277.4,817.3,282.6z M792.7,291c1.9-2.7-1.4-2.2-1.4-2.2h-18.2c0,0-2.2-0.4-3.7,1.7c-1.5,2.1-10,14.1-11.4,16
			s1.3,2.7,1.3,2.7h17.8c0,0,3.2-0.8,4.4-2.4C782.8,305.1,790.8,293.7,792.7,291z M432.4,273.4l-26,36.8l9.3,12.4H468l-8.4-13.6
			h-34.2l3.7-5.2h25.3l8.3-11.5h-25.4l3.7-5.2h29.7l10-13.8h-48.3V273.4z M621,262.6l-22,31l-19.7,7.5l8,8.9l-34.2,48.1l-14-21.5
			l20.3-28.5l-11.6-11.5L529.6,322l-14-21.6l36.1-50.8h70.6C627.7,253.9,621,262.6,621,262.6z M587.5,268.7h-19.9l-8.7,12.2l4.8,8.2
			l14-6.4L587.5,268.7z M703.9,282.8l6.9-9.7h-18.7l-35.5,49.7h18.7l16.9-23.7l4.8,12.2l18.4-9.1l-13.6,19l9.8,12.4l43-60.5H736
			l-10.6,15l-17.2,7.3L703.9,282.8z"/>
	</g>
</g>
<g id="Layer_6" class="st0">
	<rect id="XMLID_6_" x="255.2" y="367.4" class="st5" width="522.9" height="41.5"/>
	<text id="XMLID_7_" transform="matrix(1 0 0 1 255.1905 385.7733)" class="st6 st7 st8">WEB DEVELOPER AND GRAPHIC ARTIST</text>
</g>
</svg>
